# xmcd CD database file
#
# Track frame offsets:
#	150
#	21810
#	48385
#	69530
#	94510
#	113868
#	136853
#	156448
#	175290
#	198240
#	221228
#
# Disc length: 3210 seconds
#
# Revision: 5
# Processed by: cddbd v1.5.2PL0 Copyright (c) Steve Scherf et al.
# Submitted via: CDex 1.70beta3
#
DISCID=9a0c880b
DTITLE=石川智晶 - 僕はまだ何も知らない。
DYEAR=2007
DGENRE=Pop
TTITLE0=Vermillion
TTITLE1=ロストイノセント
TTITLE2=アンインストール
TTITLE3=ミスリード
TTITLE4=美しければそれでいい ～ Full Size Remix
TTITLE5=涙
TTITLE6=僕の空に季節はずれの雪が降る
TTITLE7=house
TTITLE8=Little Bird
TTITLE9=水槽の中のテトラ
TTITLE10=アイルキスユー
EXTD=YEAR: 2007
EXTT0=
EXTT1=
EXTT2=
EXTT3=
EXTT4=
EXTT5=
EXTT6=
EXTT7=
EXTT8=
EXTT9=
EXTT10=
PLAYORDER=
